<?xml version="1.0" encoding="UTF-8"?>
<svg width="260px" height="260px" viewBox="0 0 260 260" version="1.1" xmlns="http://www.w3.org/2000/svg" xmlns:xlink="http://www.w3.org/1999/xlink">
    <!-- Generator: Sketch 48.2 (47327) - http://www.bohemiancoding.com/sketch -->
    <title>txdot-logo-1x1</title>
    <desc>Created with Sketch.</desc>
    <defs>
        <polygon id="path-1" points="18.1761789 12.94 0.245259337 12.94 0.245259337 0.889 18.1761789 0.889"></polygon>
        <polygon id="path-3" points="18.1761789 12.94 0.245259337 12.94 0.245259337 0.889 18.1761789 0.889"></polygon>
    </defs>
    <g id="Page-1" stroke="none" stroke-width="1" fill="none" fill-rule="evenodd">
        <g id="txdot-logo-1x1">
            <rect id="blue-base" fill="#14375A" x="0" y="0" width="260" height="260"></rect>
            <g id="txdot-logo-square" transform="translate(38.000000, 58.000000)">
                <polyline id="Fill-1" fill="#FFFFFF" fill-rule="nonzero" points="41.291 68.816 76.982 68.816 35.691 131.611 0 131.611 41.291 68.816"></polyline>
                <path d="M181.037,18.363 C180.785,18.268 180.432,18.22 179.977,18.22 L179.533,18.22 L179.533,20.247 L180.24,20.247 C180.67,20.247 181.004,20.159 181.242,19.988 C181.48,19.818 181.6,19.542 181.6,19.162 C181.6,18.778 181.414,18.514 181.037,18.363 Z M177.701,23.978 L177.701,16.987 C178.135,16.987 178.783,16.989 179.648,16.992 C180.51,16.996 180.99,16.998 181.088,17.006 C181.641,17.045 182.1,17.165 182.467,17.364 C183.088,17.705 183.396,18.263 183.396,19.031 C183.396,19.618 183.234,20.044 182.904,20.303 C182.576,20.564 182.174,20.723 181.693,20.774 C182.137,20.865 182.467,21 182.688,21.176 C183.098,21.508 183.303,22.032 183.303,22.745 L183.303,23.37 C183.303,23.436 183.309,23.505 183.316,23.573 C183.326,23.644 183.344,23.711 183.369,23.779 L183.432,23.978 L181.688,23.978 C181.631,23.753 181.592,23.433 181.57,23.01 C181.551,22.587 181.512,22.302 181.457,22.154 C181.365,21.908 181.193,21.737 180.943,21.641 C180.805,21.585 180.596,21.545 180.318,21.529 L179.916,21.504 L179.533,21.504 L179.533,23.978 L177.701,23.978 Z M176.76,16.816 C175.756,17.842 175.256,19.061 175.256,20.469 C175.256,21.93 175.762,23.169 176.785,24.189 C177.799,25.213 179.023,25.722 180.463,25.722 C181.895,25.722 183.117,25.209 184.135,24.182 C185.146,23.151 185.658,21.912 185.658,20.469 C185.658,19.065 185.152,17.848 184.141,16.816 C183.121,15.766 181.895,15.242 180.463,15.242 C179.014,15.242 177.779,15.766 176.76,16.816 Z M184.875,24.993 C183.65,26.181 182.18,26.773 180.463,26.773 C178.691,26.773 177.195,26.165 175.98,24.952 C174.768,23.736 174.16,22.242 174.16,20.469 C174.16,18.627 174.816,17.096 176.125,15.875 C177.359,14.733 178.803,14.164 180.463,14.164 C182.205,14.164 183.689,14.78 184.922,16.012 C186.152,17.244 186.768,18.729 186.768,20.469 C186.768,22.26 186.139,23.769 184.875,24.993 Z" id="Fill-2" fill="#FFFFFF" fill-rule="nonzero"></path>
                <polyline id="Fill-3" fill="#FFFFFF" fill-rule="nonzero" points="86.367 94.515 83.955 94.515 85.973 85.009 82.484 85.009 82.916 82.966 92.309 82.966 91.877 85.009 88.385 85.009 86.367 94.515"></polyline>
                <path d="M95.338,89.384 C95.502,88.001 94.707,87.582 93.984,87.582 C92.924,87.582 92.217,88.258 91.85,89.384 L95.338,89.384 Z M97.002,92.005 C95.971,94.064 94.121,94.74 92.656,94.74 C90.244,94.74 88.643,93.581 89.389,90.059 C89.607,89.029 90.662,85.732 94.408,85.732 C96.1,85.732 98.26,86.537 97.428,90.445 L97.344,90.848 L91.473,90.848 C91.4,91.49 91.223,92.939 93.039,92.939 C93.668,92.939 94.379,92.616 94.686,92.005 L97.002,92.005 Z" id="Fill-4" fill="#FFFFFF" fill-rule="nonzero"></path>
                <polyline id="Fill-5" fill="#FFFFFF" fill-rule="nonzero" points="105.008 94.515 102.225 94.515 101.291 91.941 99.266 94.515 96.551 94.515 100.387 90.155 98.479 85.957 101.213 85.957 102.131 88.451 104.074 85.957 106.727 85.957 103.021 90.155 105.008 94.515"></polyline>
                <path d="M111.523,90.349 C111.262,90.526 110.859,90.671 109.896,90.815 C109.029,90.96 108.295,91.169 108.094,92.103 C107.928,92.891 108.488,93.131 108.92,93.131 C109.918,93.131 111.07,92.488 111.291,91.442 L111.523,90.349 Z M113.197,92.841 C112.98,93.855 113.158,94.08 113.412,94.177 L113.342,94.515 L110.914,94.515 C110.869,94.112 110.865,93.984 110.92,93.502 C110.291,94.031 109.418,94.74 107.889,94.74 C106.602,94.74 105.438,94.016 105.811,92.246 C106.166,90.573 107.41,89.722 108.885,89.513 L110.977,89.206 C111.344,89.159 111.809,89.014 111.908,88.53 C112.111,87.582 111.221,87.534 110.641,87.534 C109.516,87.534 109.174,88.226 109.006,88.725 L106.834,88.725 C107.648,86.103 109.543,85.732 111.297,85.732 C112.506,85.732 114.629,86.103 114.182,88.209 L113.197,92.841 Z" id="Fill-6" fill="#FFFFFF" fill-rule="nonzero"></path>
                <path d="M120.574,88.563 C120.594,88.016 120.521,87.437 119.301,87.437 C118.078,87.437 117.818,87.903 117.738,88.274 C117.451,89.626 123.016,88.644 122.346,91.796 C121.818,94.29 119.311,94.74 117.975,94.74 C116.027,94.74 114.064,94.064 114.484,91.779 L116.801,91.779 C116.648,92.504 116.984,93.035 118.4,93.035 C119.561,93.035 119.951,92.472 120.02,92.15 C120.322,90.718 114.789,91.796 115.467,88.596 C115.734,87.341 116.863,85.732 119.533,85.732 C121.205,85.732 123.111,86.151 122.775,88.563 L120.574,88.563" id="Fill-7" fill="#FFFFFF" fill-rule="nonzero"></path>
                <path d="M64.945,109.598 L67.295,109.598 C69.256,109.598 70.336,107.619 70.74,105.721 C71.465,102.312 69.898,102.038 68.867,102.038 L66.551,102.038 L64.945,109.598 Z M64.609,100.044 L69.709,100.044 C73.6,100.044 73.701,103.357 73.236,105.545 C72.711,108.022 70.973,111.592 67.16,111.592 L62.156,111.592 L64.609,100.044 Z" id="Fill-8" fill="#FFFFFF" fill-rule="nonzero"></path>
                <path d="M79.43,106.461 C79.594,105.078 78.799,104.66 78.074,104.66 C77.014,104.66 76.307,105.336 75.937,106.461 L79.43,106.461 Z M81.092,109.083 C80.062,111.141 78.211,111.816 76.748,111.816 C74.336,111.816 72.73,110.659 73.48,107.138 C73.699,106.107 74.752,102.811 78.5,102.811 C80.188,102.811 82.35,103.614 81.521,107.523 L81.434,107.925 L75.564,107.925 C75.49,108.568 75.312,110.016 77.131,110.016 C77.76,110.016 78.467,109.694 78.777,109.083 L81.092,109.083 Z" id="Fill-9" fill="#FFFFFF" fill-rule="nonzero"></path>
                <path d="M86.197,109.968 C87.645,109.968 88.383,108.392 88.596,107.378 C88.883,106.026 88.67,104.756 87.24,104.756 C85.695,104.756 85.033,106.14 84.74,107.507 C84.473,108.777 84.766,109.968 86.197,109.968 Z M85.426,104.273 L85.459,104.273 C86.023,103.599 86.816,102.811 88.328,102.811 C90.209,102.811 91.576,104.257 90.947,107.217 C90.449,109.565 88.91,111.816 86.367,111.816 C84.793,111.816 84.41,110.965 84.234,110.499 L84.201,110.499 L83.264,114.921 L81.014,114.921 L83.537,103.036 L85.691,103.036 L85.426,104.273 Z" id="Fill-10" fill="#FFFFFF" fill-rule="nonzero"></path>
                <path d="M96.824,107.427 C96.561,107.603 96.158,107.748 95.197,107.894 C94.33,108.037 93.594,108.246 93.395,109.18 C93.229,109.968 93.789,110.209 94.221,110.209 C95.219,110.209 96.369,109.565 96.592,108.521 L96.824,107.427 Z M98.496,109.92 C98.281,110.933 98.459,111.158 98.711,111.254 L98.639,111.592 L96.211,111.592 C96.168,111.189 96.164,111.062 96.219,110.578 C95.59,111.109 94.715,111.816 93.189,111.816 C91.902,111.816 90.736,111.094 91.111,109.325 C91.467,107.651 92.709,106.8 94.186,106.59 L96.277,106.283 C96.643,106.236 97.105,106.092 97.207,105.608 C97.408,104.66 96.52,104.611 95.939,104.611 C94.816,104.611 94.475,105.304 94.305,105.802 L92.135,105.802 C92.949,103.18 94.844,102.811 96.596,102.811 C97.803,102.811 99.928,103.18 99.479,105.287 L98.496,109.92 Z" id="Fill-11" fill="#FFFFFF" fill-rule="nonzero"></path>
                <path d="M101.568,103.036 L103.723,103.036 L103.408,104.516 L103.441,104.516 C104.092,103.647 104.783,102.811 106.15,102.811 C106.295,102.811 106.438,102.826 106.576,102.842 L106.094,105.126 C105.906,105.094 105.666,105.094 105.455,105.094 C103.703,105.094 103.148,106.188 102.949,107.138 L102.002,111.592 L99.75,111.592 L101.568,103.036" id="Fill-12" fill="#FFFFFF" fill-rule="nonzero"></path>
                <path d="M110.299,103.036 L111.699,103.036 L111.357,104.644 L109.957,104.644 L108.969,109.293 C108.863,109.79 108.838,109.983 109.758,109.983 C109.898,109.983 110.066,109.968 110.23,109.951 L109.867,111.656 C109.512,111.672 109.152,111.688 108.801,111.688 L108.508,111.688 C106.563,111.688 106.367,110.949 106.602,109.839 L107.707,104.644 L106.547,104.644 L106.889,103.036 L108.045,103.036 L108.537,100.719 L110.791,100.719 L110.299,103.036" id="Fill-13" fill="#FFFFFF" fill-rule="nonzero"></path>
                <path d="M123.166,111.592 L120.914,111.592 L122.018,106.397 C122.289,105.126 121.813,104.708 121.154,104.708 C120.027,104.708 119.469,105.448 119.254,106.461 L118.166,111.592 L115.912,111.592 L117.006,106.444 C117.158,105.721 117.375,104.708 116.023,104.708 C114.963,104.708 114.465,105.448 114.27,106.381 L113.162,111.592 L110.91,111.592 L112.727,103.036 L114.881,103.036 L114.615,104.291 L114.648,104.291 C115.059,103.728 115.879,102.811 117.391,102.811 C118.631,102.811 119.098,103.261 119.48,104.178 C119.861,103.758 120.689,102.811 122.057,102.811 C123.73,102.811 124.824,103.792 124.424,105.674 L123.166,111.592" id="Fill-14" fill="#FFFFFF" fill-rule="nonzero"></path>
                <path d="M131.061,106.461 C131.227,105.078 130.432,104.66 129.707,104.66 C128.646,104.66 127.938,105.336 127.572,106.461 L131.061,106.461 Z M132.723,109.083 C131.691,111.141 129.844,111.816 128.381,111.816 C125.967,111.816 124.363,110.659 125.111,107.138 C125.33,106.107 126.385,102.811 130.131,102.811 C131.82,102.811 133.984,103.614 133.152,107.523 L133.068,107.925 L127.197,107.925 C127.123,108.568 126.945,110.016 128.762,110.016 C129.391,110.016 130.102,109.694 130.41,109.083 L132.723,109.083 Z" id="Fill-15" fill="#FFFFFF" fill-rule="nonzero"></path>
                <path d="M141.137,111.592 L138.883,111.592 L139.986,106.397 C140.119,105.77 140.314,104.708 138.881,104.708 C137.885,104.708 136.969,105.383 136.693,106.687 L135.652,111.592 L133.398,111.592 L135.217,103.036 L137.371,103.036 L137.105,104.291 L137.137,104.291 C137.553,103.775 138.4,102.811 140.027,102.811 C141.697,102.811 142.791,103.792 142.393,105.674 L141.137,111.592" id="Fill-16" fill="#FFFFFF" fill-rule="nonzero"></path>
                <path d="M147.186,103.036 L148.582,103.036 L148.24,104.644 L146.84,104.644 L145.855,109.293 C145.75,109.79 145.725,109.983 146.641,109.983 C146.785,109.983 146.949,109.968 147.113,109.951 L146.754,111.656 C146.395,111.672 146.037,111.688 145.684,111.688 L145.395,111.688 C143.447,111.688 143.25,110.949 143.486,109.839 L144.59,104.644 L143.434,104.644 L143.773,103.036 L144.932,103.036 L145.424,100.719 L147.674,100.719 L147.186,103.036" id="Fill-17" fill="#FFFFFF" fill-rule="nonzero"></path>
                <path d="M53.26,121.785 C51.523,121.785 50.881,123.298 50.648,124.392 C50.416,125.485 50.416,126.998 52.152,126.998 C53.891,126.998 54.533,125.485 54.766,124.392 C54.998,123.298 54.996,121.785 53.26,121.785 Z M51.75,128.895 C49.451,128.895 47.676,127.48 48.332,124.392 C48.988,121.304 51.361,119.889 53.664,119.889 C55.963,119.889 57.736,121.304 57.082,124.392 C56.426,127.48 54.049,128.895 51.75,128.895 Z" id="Fill-18" fill="#FFFFFF" fill-rule="nonzero"></path>
                <path d="M59.969,128.67 L57.719,128.67 L59.193,121.722 L57.955,121.722 L58.297,120.113 L59.535,120.113 L59.682,119.422 C60.057,117.652 61.168,116.977 62.709,116.977 C63.371,116.977 63.672,116.992 63.861,117.009 L63.475,118.827 L62.85,118.827 C62.074,118.827 62.01,119.067 61.859,119.775 L61.787,120.113 L63.25,120.113 L62.908,121.722 L61.445,121.722 L59.969,128.67" id="Fill-19" fill="#FFFFFF" fill-rule="nonzero"></path>
                <polyline id="Fill-20" fill="#FFFFFF" fill-rule="nonzero" points="71.504 128.67 69.088 128.67 71.109 119.164 67.617 119.164 68.053 117.121 77.445 117.121 77.014 119.164 73.521 119.164 71.504 128.67"></polyline>
                <path d="M76.215,120.113 L78.369,120.113 L78.055,121.593 L78.088,121.593 C78.738,120.724 79.43,119.889 80.797,119.889 C80.941,119.889 81.084,119.904 81.225,119.921 L80.74,122.204 C80.555,122.172 80.312,122.172 80.104,122.172 C78.35,122.172 77.797,123.266 77.596,124.215 L76.648,128.67 L74.396,128.67 L76.215,120.113" id="Fill-21" fill="#FFFFFF" fill-rule="nonzero"></path>
                <path d="M85.896,124.504 C85.635,124.681 85.234,124.826 84.27,124.97 C83.402,125.116 82.668,125.324 82.471,126.257 C82.301,127.045 82.861,127.286 83.297,127.286 C84.295,127.286 85.443,126.643 85.668,125.598 L85.896,124.504 Z M87.57,126.998 C87.357,128.011 87.535,128.235 87.787,128.332 L87.715,128.67 L85.287,128.67 C85.244,128.268 85.238,128.14 85.293,127.656 C84.666,128.188 83.791,128.895 82.264,128.895 C80.979,128.895 79.811,128.171 80.188,126.402 C80.543,124.73 81.785,123.877 83.262,123.667 L85.354,123.361 C85.717,123.314 86.182,123.168 86.283,122.687 C86.484,121.738 85.596,121.689 85.016,121.689 C83.891,121.689 83.551,122.381 83.381,122.879 L81.207,122.879 C82.021,120.258 83.92,119.889 85.672,119.889 C86.879,119.889 89.004,120.258 88.555,122.365 L87.57,126.998 Z" id="Fill-22" fill="#FFFFFF" fill-rule="nonzero"></path>
                <path d="M96.58,128.67 L94.326,128.67 L95.432,123.475 C95.563,122.848 95.758,121.785 94.326,121.785 C93.328,121.785 92.412,122.461 92.137,123.765 L91.096,128.67 L88.842,128.67 L90.66,120.113 L92.814,120.113 L92.549,121.367 L92.58,121.367 C92.996,120.853 93.844,119.889 95.467,119.889 C97.139,119.889 98.234,120.868 97.836,122.751 L96.58,128.67" id="Fill-23" fill="#FFFFFF" fill-rule="nonzero"></path>
                <g id="Group-27" transform="translate(98.000000, 119.000000)">
                    <g id="Fill-24-Clipped">
                        <mask id="mask-2" fill="white">
                            <use xlink:href="#path-1"></use>
                        </mask>
                        <g id="path-1"></g>
                        <path d="M6.389,3.719 C6.408,3.172 6.338,2.593 5.115,2.593 C3.893,2.593 3.633,3.06 3.555,3.43 C3.27,4.78 8.832,3.799 8.164,6.952 C7.633,9.444 5.127,9.895 3.789,9.895 C1.846,9.895 -0.119,9.22 0.303,6.936 L2.615,6.936 C2.463,7.659 2.803,8.19 4.215,8.19 C5.375,8.19 5.766,7.628 5.838,7.306 C6.141,5.874 0.604,6.952 1.281,3.751 C1.549,2.496 2.68,0.889 5.35,0.889 C7.021,0.889 8.928,1.306 8.594,3.719 L6.389,3.719" id="Fill-24" fill="#FFFFFF" fill-rule="nonzero" mask="url(#mask-2)"></path>
                    </g>
                    <g id="Fill-26-Clipped">
                        <mask id="mask-4" fill="white">
                            <use xlink:href="#path-3"></use>
                        </mask>
                        <g id="path-1"></g>
                        <path d="M13.271,8.045 C14.719,8.045 15.457,6.469 15.672,5.455 C15.959,4.105 15.746,2.834 14.314,2.834 C12.771,2.834 12.107,4.218 11.816,5.585 C11.547,6.855 11.842,8.045 13.271,8.045 Z M12.5,2.352 L12.537,2.352 C13.098,1.677 13.893,0.889 15.402,0.889 C17.285,0.889 18.65,2.336 18.021,5.294 C17.523,7.643 15.984,9.895 13.441,9.895 C11.867,9.895 11.484,9.042 11.309,8.577 L11.275,8.577 L10.338,13 L8.084,13 L10.611,1.113 L12.766,1.113 L12.5,2.352 Z" id="Fill-26" fill="#FFFFFF" fill-rule="nonzero" mask="url(#mask-4)"></path>
                    </g>
                </g>
                <path d="M121.621,121.785 C119.885,121.785 119.242,123.298 119.01,124.392 C118.777,125.485 118.777,126.998 120.514,126.998 C122.254,126.998 122.896,125.485 123.129,124.392 C123.361,123.298 123.361,121.785 121.621,121.785 Z M120.111,128.895 C117.813,128.895 116.037,127.48 116.693,124.392 C117.35,121.304 119.725,119.889 122.023,119.889 C124.326,119.889 126.1,121.304 125.443,124.392 C124.787,127.48 122.412,128.895 120.111,128.895 Z" id="Fill-28" fill="#FFFFFF" fill-rule="nonzero"></path>
                <path d="M127.527,120.113 L129.682,120.113 L129.367,121.593 L129.4,121.593 C130.051,120.724 130.744,119.889 132.111,119.889 C132.256,119.889 132.398,119.904 132.539,119.921 L132.053,122.204 C131.867,122.172 131.627,122.172 131.418,122.172 C129.664,122.172 129.111,123.266 128.908,124.215 L127.963,128.67 L125.709,128.67 L127.527,120.113" id="Fill-29" fill="#FFFFFF" fill-rule="nonzero"></path>
                <path d="M136.258,120.113 L137.656,120.113 L137.316,121.722 L135.916,121.722 L134.93,126.369 C134.822,126.868 134.799,127.062 135.715,127.062 C135.859,127.062 136.023,127.045 136.188,127.029 L135.826,128.733 C135.469,128.75 135.113,128.767 134.758,128.767 L134.467,128.767 C132.523,128.767 132.326,128.027 132.563,126.917 L133.664,121.722 L132.508,121.722 L132.85,120.113 L134.006,120.113 L134.498,117.797 L136.75,117.797 L136.258,120.113" id="Fill-30" fill="#FFFFFF" fill-rule="nonzero"></path>
                <path d="M142.502,124.504 C142.236,124.681 141.836,124.826 140.871,124.97 C140.004,125.116 139.27,125.324 139.07,126.257 C138.902,127.045 139.463,127.286 139.898,127.286 C140.896,127.286 142.045,126.643 142.266,125.598 L142.502,124.504 Z M144.172,126.998 C143.959,128.011 144.137,128.235 144.389,128.332 L144.316,128.67 L141.889,128.67 C141.846,128.268 141.84,128.14 141.895,127.656 C141.268,128.188 140.393,128.895 138.865,128.895 C137.576,128.895 136.412,128.171 136.789,126.402 C137.145,124.73 138.387,123.877 139.863,123.667 L141.955,123.361 C142.318,123.314 142.783,123.168 142.885,122.687 C143.086,121.738 142.197,121.689 141.617,121.689 C140.492,121.689 140.152,122.381 139.98,122.879 L137.809,122.879 C138.623,120.258 140.52,119.889 142.273,119.889 C143.48,119.889 145.605,120.258 145.158,122.365 L144.172,126.998 Z" id="Fill-31" fill="#FFFFFF" fill-rule="nonzero"></path>
                <path d="M149.785,120.113 L151.186,120.113 L150.844,121.722 L149.443,121.722 L148.457,126.369 C148.354,126.868 148.326,127.062 149.244,127.062 C149.389,127.062 149.553,127.045 149.717,127.029 L149.355,128.733 C148.998,128.75 148.641,128.767 148.285,128.767 L147.998,128.767 C146.051,128.767 145.854,128.027 146.088,126.917 L147.193,121.722 L146.033,121.722 L146.375,120.113 L147.535,120.113 L148.027,117.797 L150.277,117.797 L149.785,120.113" id="Fill-32" fill="#FFFFFF" fill-rule="nonzero"></path>
                <path d="M154.762,119.101 L152.512,119.101 L152.955,117.009 L155.207,117.009 L154.762,119.101 Z M154.549,120.113 L152.73,128.67 L150.48,128.67 L152.295,120.113 L154.549,120.113 Z" id="Fill-33" fill="#FFFFFF" fill-rule="nonzero"></path>
                <path d="M159.838,121.785 C158.102,121.785 157.459,123.298 157.227,124.392 C156.994,125.485 156.996,126.998 158.732,126.998 C160.469,126.998 161.111,125.485 161.344,124.392 C161.576,123.298 161.576,121.785 159.838,121.785 Z M158.328,128.895 C156.027,128.895 154.254,127.48 154.91,124.392 C155.566,121.304 157.941,119.889 160.242,119.889 C162.541,119.889 164.316,121.304 163.66,124.392 C163.004,127.48 160.627,128.895 158.328,128.895 Z" id="Fill-34" fill="#FFFFFF" fill-rule="nonzero"></path>
                <path d="M171.68,128.67 L169.426,128.67 L170.531,123.475 C170.662,122.848 170.857,121.785 169.426,121.785 C168.428,121.785 167.512,122.461 167.236,123.765 L166.195,128.67 L163.943,128.67 L165.76,120.113 L167.914,120.113 L167.648,121.367 L167.682,121.367 C168.098,120.853 168.945,119.889 170.57,119.889 C172.242,119.889 173.336,120.868 172.938,122.751 L171.68,128.67" id="Fill-35" fill="#FFFFFF" fill-rule="nonzero"></path>
                <polyline id="Fill-36" fill="#FFFFFF" fill-rule="nonzero" points="6.525 57.178 101.982 57.58 102.693 56.536 6.885 56.679 6.525 57.178"></polyline>
                <polyline id="Fill-37" fill="#FFFFFF" fill-rule="nonzero" points="4.664 59.776 100.209 60.179 100.889 59.184 5.006 59.302 4.664 59.776"></polyline>
                <polyline id="Fill-38" fill="#FFFFFF" fill-rule="nonzero" points="3.223 61.79 2.885 62.265 98.414 62.81 99.125 61.766 3.223 61.79"></polyline>
                <polyline id="Fill-39" fill="#FFFFFF" fill-rule="nonzero" points="102.016 30.278 100.846 29.235 26.437 29.378 26.082 29.875 102.016 30.278"></polyline>
                <polyline id="Fill-40" fill="#FFFFFF" fill-rule="nonzero" points="24.227 32.465 104.92 32.869 103.805 31.874 24.564 31.99 24.227 32.465"></polyline>
                <polyline id="Fill-41" fill="#FFFFFF" fill-rule="nonzero" points="22.437 34.964 107.879 35.508 106.709 34.464 22.777 34.488 22.437 34.964"></polyline>
                <polyline id="Fill-42" fill="#FFFFFF" fill-rule="nonzero" points="15.916 44.066 110.832 44.613 111.512 43.615 16.258 43.591 15.916 44.066"></polyline>
                <polyline id="Fill-43" fill="#FFFFFF" fill-rule="nonzero" points="19.465 39.112 112.207 39.373 111.043 38.331 19.824 38.613 19.465 39.112"></polyline>
                <polyline id="Fill-44" fill="#FFFFFF" fill-rule="nonzero" points="17.701 41.571 112.631 41.976 113.313 40.979 18.043 41.098 17.701 41.571"></polyline>
                <polyline id="Fill-45" fill="#FFFFFF" fill-rule="nonzero" points="13.045 48.075 108.227 48.431 108.906 47.434 13.402 47.576 13.045 48.075"></polyline>
                <polyline id="Fill-46" fill="#FFFFFF" fill-rule="nonzero" points="11.191 50.666 106.426 51.068 107.107 50.071 11.533 50.189 11.191 50.666"></polyline>
                <polyline id="Fill-47" fill="#FFFFFF" fill-rule="nonzero" points="9.4 53.165 104.625 53.711 105.336 52.667 9.738 52.689 9.4 53.165"></polyline>
                <polyline id="Fill-48" fill="#FFFFFF" fill-rule="nonzero" points="97.49 26.241 122.668 26.241 140.852 0.959 140.852 26.241 168.824 26.241 142.25 40.592 142.25 65.189 124.766 50.157 96.791 65.189 113.576 40.592 97.49 26.241"></polyline>
            </g>
        </g>
    </g>
</svg>